<svg xmlns="http://www.w3.org/2000/svg" viewBox="0 0 287.01 149.91"><defs><style>.cls-1{fill:#fff;}.cls-2{fill:#ffe644;}</style></defs><title>logo</title><g id="Слой_2" data-name="Слой 2"><g id="Layer_1" data-name="Layer 1"><path class="cls-1" d="M145.23,98.91a3,3,0,0,0-2.72-1.75H135a1.6,1.6,0,0,0-1.44,2.31l13.92,28.21a.6.6,0,0,0,1.08,0l3.5-7.71a7.21,7.21,0,0,0,0-5.91Z"/><path class="cls-1" d="M177.11,99.47,161.19,132v14.91a2.3,2.3,0,0,1-2.3,2.3h-7a2.3,2.3,0,0,1-2.29-2.3v-3.77a42.17,42.17,0,0,1,3.79-17.48c3.1-6.82,4.56-10.05,4.56-10.05l7.61-16.72a3,3,0,0,1,2.71-1.75h7.36A1.6,1.6,0,0,1,177.11,99.47Z"/><path class="cls-1" d="M40.69,146.77,28.47,127a17,17,0,0,0-4.38-4.61v-.3a12.45,12.45,0,0,0,3.77-4.15L39.7,99.63a1.6,1.6,0,0,0-1.35-2.47H30.74a3.43,3.43,0,0,0-2.91,1.61L17.31,115.36a12.86,12.86,0,0,0-2,6.88h0a12.84,12.84,0,0,0,1.84,6.61l11.23,18.71a3.43,3.43,0,0,0,2.94,1.67h8A1.61,1.61,0,0,0,40.69,146.77Z"/><path class="cls-1" d="M11.71,99.45v47.48a2.29,2.29,0,0,1-2.28,2.3H2.54a2.31,2.31,0,0,1-2.3-2.3V99.45a2.3,2.3,0,0,1,2.3-2.29H9.43A2.28,2.28,0,0,1,11.71,99.45Z"/><path class="cls-1" d="M87.59,147.19l-4-14.19c-1.21-5.36-4.76-7.24-7.4-7.84v-.38c7.4-.91,10-5.59,10-12.91C86.19,100,80.53,96.48,67,96.48c-8.27,0-12.54.06-17.74.49a2.3,2.3,0,0,0-2.11,2.29v5.52a.6.6,0,0,0,.6.6c14.27,0,8.92,0,19-.07,6,0,7.85,1.51,7.85,7.32S72.76,120,66.72,120h-8.3V109.58a.59.59,0,0,0-.59-.6H50.68a3.58,3.58,0,0,0-3.58,3.58v34.37a2.3,2.3,0,0,0,2.3,2.3h6.73a2.29,2.29,0,0,0,2.29-2.3V128.85l8.08.08c3.09,0,4.6,1.06,5.58,4.37L75.44,147a3,3,0,0,0,2.9,2.27H86A1.62,1.62,0,0,0,87.59,147.19Z"/><path class="cls-1" d="M126,140.24H108.14c-2.49,0-3.55-1.13-3.55-3.92V110.06c0-2.71,1.06-3.85,3.55-3.85H126a2.29,2.29,0,0,0,2.29-2.15l.26-4.15a2.29,2.29,0,0,0-2.1-2.43c-6.69-.55-14.66-.55-21.91-.55-6.94,0-11.4,4.08-11.47,10.49V139c.07,6.42,4.53,10.49,11.47,10.49,7.25,0,15.22,0,21.91-.54a2.3,2.3,0,0,0,2.1-2.43l-.26-4.08A2.29,2.29,0,0,0,126,140.24Zm-17.78-18.68v4.13a.6.6,0,0,0,.6.6h14.25a2.3,2.3,0,0,0,2.29-2.3v-3.71a2.29,2.29,0,0,0-2.29-2.29H111.78A3.57,3.57,0,0,0,108.21,121.56Z"/><path class="cls-1" d="M203.81,96.48c-7,0-12.72.23-18.07.55a2.28,2.28,0,0,0-2.15,2.28v5.63a.59.59,0,0,0,.6.59c8.55,0,14.26,0,19.62-.07,7.78,0,10.12,4.08,10.12,17.73s-2.34,17.66-10.12,17.66c-3.16,0-6.1-.08-8.75-.08v-31a.59.59,0,0,0-.6-.59h-7.29a3.57,3.57,0,0,0-3.58,3.57v34.36a2.3,2.3,0,0,0,2.16,2.29c5.36.31,11.16.55,18.06.55,16.38,0,22.19-6.12,22.19-26.72S220.19,96.48,203.81,96.48Z"/><path class="cls-1" d="M275.69,147.15l-14.38-47a3.91,3.91,0,0,0-4-3H246.45a4,4,0,0,0-4,3l-14.37,47a1.6,1.6,0,0,0,1.53,2.08h7.33A3,3,0,0,0,239.8,147c2.76-10,3.66-13.37,10-36.3.38-1.58.76-3.32,1.14-4.9h2c.22,1.58.68,3.32,1.05,4.9l4.38,15.92h-6.51a3.58,3.58,0,0,0-3.45,2.64l-1.51,5.52a.59.59,0,0,0,.57.75h13.39L264,147a3,3,0,0,0,2.87,2.19h7.26A1.6,1.6,0,0,0,275.69,147.15Z"/><path class="cls-1" d="M282.73,109.58l-.67-2.23a1.59,1.59,0,0,0-1.59-1.4v-.08a2,2,0,0,0,2-2.07c0-2-1.28-2.64-4.15-2.64-1.74,0-2.63,0-3.67.08a.52.52,0,0,0-.48.52v1.34a.18.18,0,0,0,.18.18h3.89c1,0,1.2.12,1.2.84s-.24.88-1.2.92h-1.12v-.8a.18.18,0,0,0-.18-.18h-2.14a.63.63,0,0,0-.63.63v4.82a.52.52,0,0,0,.52.52h1.91a.52.52,0,0,0,.52-.52v-2.64h1a.81.81,0,0,1,.92.6l.47,2a.7.7,0,0,0,.68.54h2.13A.35.35,0,0,0,282.73,109.58ZM278.15,97a8.89,8.89,0,1,0,8.86,8.87A8.86,8.86,0,0,0,278.15,97Zm0,15.73a6.87,6.87,0,1,1,6.79-6.86A6.85,6.85,0,0,1,278.15,112.7Z"/><path class="cls-2" d="M266.41,81.47c-.09-.35-6.89-18.62-7-19a9.33,9.33,0,0,0-.47-1L243.79,76.59l12.59,4.74c0,.08-255.89,1.31-255.89,1.31-.65,0-.65.32,0,.32l263.84,1.21C266.06,84.18,266.84,83.13,266.41,81.47Z"/><path class="cls-2" d="M246.46,40.11a7.41,7.41,0,0,0,0-10.49L219,2.17a7.41,7.41,0,1,0-10.48,10.49L236,40.11A7.42,7.42,0,0,0,246.46,40.11Z"/><path class="cls-2" d="M222.57,64a7.43,7.43,0,0,0,0-10.49L172.83,3.77a7.42,7.42,0,0,0-10.49,10.49L212.08,64A7.43,7.43,0,0,0,222.57,64Z"/><path class="cls-2" d="M234.52,52.05a7.42,7.42,0,0,0,0-10.48l-38.8-38.8a7.41,7.41,0,0,0-10.48,10.49L224,52.05A7.41,7.41,0,0,0,234.52,52.05Z"/></g></g></svg>