<?xml version="1.0" encoding="utf-8"?>
<!-- Generator: Adobe Illustrator 20.1.0, SVG Export Plug-In . SVG Version: 6.00 Build 0)  -->
<svg version="1.1" xmlns="http://www.w3.org/2000/svg" xmlns:xlink="http://www.w3.org/1999/xlink" x="0px" y="0px" width="287px"
	 height="149.9px" viewBox="0 0 287 149.9" style="enable-background:new 0 0 287 149.9;" xml:space="preserve">
<style type="text/css">
	.st0{display:none;}
	.st1{display:inline;fill:#010202;}
	.st2{fill:#FFFFFF;}
	.st3{fill:#FFE500;}
</style>
<g id="Слой_2" class="st0">
	<rect class="st1" width="287" height="149.9"/>
</g>
<g id="Слой_1">
	<g>
		<g>
			<path class="st2" d="M145.2,98.9c-0.5-1.1-1.5-1.7-2.7-1.7H135c-1.2,0-2,1.2-1.4,2.3l13.9,28.2c0.2,0.5,0.9,0.4,1.1,0l3.5-7.7
				c0.9-1.9,0.9-4,0-5.9C149.8,108.9,145.2,98.9,145.2,98.9z"/>
		</g>
		<g>
			<path class="st2" d="M177.1,99.5L161.2,132v14.9c0,1.3-1,2.3-2.3,2.3h-7c-1.3,0-2.3-1-2.3-2.3v-3.8c0-6,1.3-12,3.8-17.5
				c3.1-6.8,4.6-10,4.6-10l7.6-16.7c0.5-1.1,1.5-1.7,2.7-1.7h7.4C176.9,97.2,177.6,98.4,177.1,99.5z"/>
		</g>
		<g>
			<path class="st2" d="M40.7,146.8L28.5,127c-1.1-1.7-2.9-3.5-4.4-4.6v-0.2v-0.1c1.5-1.1,2.7-2.3,3.8-4.1l11.8-18.3
				c0.7-1.1-0.1-2.5-1.3-2.5h-7.6c-1.2,0-2.3,0.6-2.9,1.6l-10.5,16.6c-1.3,2.1-2,4.4-2,6.9v0c0,2.3,0.6,4.6,1.8,6.6l11.2,18.7
				c0.6,1,1.7,1.7,2.9,1.7h8C40.6,149.2,41.4,147.8,40.7,146.8z"/>
		</g>
		<g>
			<path class="st2" d="M11.7,99.5v47.5c0,1.3-1,2.3-2.3,2.3H2.5c-1.3,0-2.3-1-2.3-2.3V99.5c0-1.3,1-2.3,2.3-2.3h6.9
				C10.7,97.2,11.7,98.2,11.7,99.5z"/>
		</g>
		<g>
			<path class="st2" d="M87.6,147.2l-4-14.2c-1.2-5.4-4.8-7.2-7.4-7.8v-0.4c7.4-0.9,10-5.6,10-12.9c0-11.9-5.7-15.4-19.2-15.4
				c-8.3,0-12.5,0.1-17.7,0.5c-1.2,0.1-2.1,1.1-2.1,2.3l0,5.5c0,0.3,0.3,0.6,0.6,0.6c14.3,0,8.9,0,19-0.1c6,0,7.8,1.5,7.8,7.3
				c0,5.7-1.8,7.4-7.8,7.4h-8.3v-10.4c0-0.3-0.3-0.6-0.6-0.6h-7.2c-2,0-3.6,1.6-3.6,3.6v34.4c0,1.3,1,2.3,2.3,2.3h6.7
				c1.3,0,2.3-1,2.3-2.3v-18.1l8.1,0.1c3.1,0,4.6,1.1,5.6,4.4l3.4,13.7c0.3,1.3,1.5,2.3,2.9,2.3H86
				C87.1,149.2,87.9,148.2,87.6,147.2z"/>
		</g>
		<g>
			<path class="st2" d="M126,140.2h-17.8c-2.5,0-3.5-1.1-3.5-3.9v-26.3c0-2.7,1.1-3.8,3.5-3.8H126c1.2,0,2.2-0.9,2.3-2.2l0.3-4.2
				c0.1-1.2-0.9-2.3-2.1-2.4c-6.7-0.5-14.7-0.5-21.9-0.5c-6.9,0-11.4,4.1-11.5,10.5V139c0.1,6.4,4.5,10.5,11.5,10.5
				c7.2,0,15.2,0,21.9-0.5c1.2-0.1,2.2-1.2,2.1-2.4l-0.3-4.1C128.2,141.2,127.2,140.2,126,140.2z M108.2,121.6v4.1
				c0,0.3,0.3,0.6,0.6,0.6h14.3c1.3,0,2.3-1,2.3-2.3v-3.7c0-1.3-1-2.3-2.3-2.3h-11.3C109.8,118,108.2,119.6,108.2,121.6z"/>
		</g>
		<g>
			<path class="st2" d="M203.8,96.5c-7,0-12.7,0.2-18.1,0.5c-1.2,0.1-2.2,1.1-2.2,2.3l0,5.6c0,0.3,0.3,0.6,0.6,0.6
				c8.6,0,14.3,0,19.6-0.1c7.8,0,10.1,4.1,10.1,17.7c0,13.7-2.3,17.7-10.1,17.7c-3.2,0-6.1-0.1-8.8-0.1v-31c0-0.3-0.3-0.6-0.6-0.6
				h-7.3c-2,0-3.6,1.6-3.6,3.6v34.4c0,1.2,0.9,2.2,2.2,2.3c5.4,0.3,11.2,0.6,18.1,0.6c16.4,0,22.2-6.1,22.2-26.7
				S220.2,96.5,203.8,96.5z"/>
		</g>
		<g>
			<path class="st2" d="M275.7,147.2l-14.4-47c-0.4-1.9-2-3-4-3h-10.9c-1.9,0-3.5,1.1-4,3l-14.4,47c-0.3,1,0.5,2.1,1.5,2.1h7.3
				c1.3,0,2.5-0.9,2.9-2.2c2.8-10,3.7-13.4,10-36.3c0.4-1.6,0.8-3.3,1.1-4.9h2c0.2,1.6,0.7,3.3,1.1,4.9l4.4,15.9h-6.5
				c-1.6,0-3,1.1-3.4,2.6l-1.5,5.5c-0.1,0.4,0.2,0.8,0.6,0.8h13.4L264,147c0.4,1.3,1.5,2.2,2.9,2.2h7.3
				C275.2,149.2,276,148.2,275.7,147.2z"/>
		</g>
		<g>
			<path class="st2" d="M282.7,109.6l-0.7-2.2c-0.3-1.2-1-1.4-1.6-1.4v-0.1c1.6-0.2,2-1.1,2-2.1c0-2-1.3-2.6-4.2-2.6
				c-1.7,0-2.6,0-3.7,0.1c-0.3,0-0.5,0.2-0.5,0.5v1.3c0,0.1,0.1,0.2,0.2,0.2h3.9c1,0,1.2,0.1,1.2,0.8c0,0.7-0.2,0.9-1.2,0.9h-1.1
				v-0.8c0-0.1-0.1-0.2-0.2-0.2h-2.1c-0.4,0-0.6,0.3-0.6,0.6v4.8c0,0.3,0.2,0.5,0.5,0.5h1.9c0.3,0,0.5-0.2,0.5-0.5v-2.6h1
				c0.5,0,0.7,0.1,0.9,0.6l0.5,2c0.1,0.3,0.4,0.5,0.7,0.5h2.1C282.6,110,282.8,109.8,282.7,109.6z M278.1,97c-5,0-8.9,4-8.9,8.9
				c0,5,4,8.9,8.9,8.9c4.9,0,8.9-4,8.9-8.9C287,100.9,283.1,97,278.1,97z M278.1,112.7c-3.8,0-6.8-3.1-6.8-6.9
				c0-3.8,3.1-6.9,6.8-6.9c3.7,0,6.8,3.1,6.8,6.9C284.9,109.6,281.8,112.7,278.1,112.7z"/>
		</g>
		<g>
			<path class="st2" d="M13.1,65.7c0,3.3-2.2,5.7-5.3,5.7c-1.5,0-2.8-0.6-3.6-1.6v4.4c0,0.7-0.5,1.2-1.1,1.2s-1.2-0.5-1.2-1.2V61.2
				c0-0.7,0.5-1.2,1.2-1.2c0.6,0,1.1,0.5,1.1,1.2v0.4C5,60.6,6.3,60,7.8,60C10.9,60,13.1,62.4,13.1,65.7z M10.8,65.7
				c0-2-1.4-3.5-3.3-3.5c-1.9,0-3.3,1.4-3.3,3.5c0,2.1,1.3,3.5,3.3,3.5C9.4,69.2,10.8,67.7,10.8,65.7z"/>
			<path class="st2" d="M17.8,58.2l-2.2-2.9c-0.2-0.2-0.3-0.4-0.3-0.7c0-0.5,0.4-0.9,0.9-0.9c0.3,0,0.5,0.1,0.7,0.3l1.8,2l1.8-2
				c0.2-0.2,0.4-0.3,0.7-0.3c0.5,0,0.9,0.4,0.9,0.9c0,0.3-0.1,0.5-0.3,0.7l-2.3,2.9c-0.2,0.3-0.6,0.4-0.9,0.4
				C18.4,58.6,18.1,58.5,17.8,58.2z M22.8,61.2c0,0.6-0.5,1.1-1.1,1.1c-1.8,0-3,1.2-3,3v4.8c0,0.7-0.5,1.2-1.1,1.2s-1.2-0.5-1.2-1.2
				v-8.9c0-0.7,0.5-1.2,1.2-1.2c0.6,0,1.1,0.5,1.1,1.2v0.3c0.7-0.9,1.8-1.4,3-1.4C22.3,60.2,22.8,60.6,22.8,61.2z"/>
			<path class="st2" d="M34.8,65.1v0.1c0,0.8-0.5,1.3-1.3,1.3h-6.9c0.3,1.7,1.6,2.8,3.5,2.8c0.9,0,1.8-0.3,2.5-0.8
				c0.2-0.1,0.4-0.2,0.6-0.2c0.6,0,1,0.4,1,1c0,0.4-0.2,0.7-0.6,1c-1,0.8-2.2,1.2-3.6,1.2c-3.3,0-5.8-2.4-5.8-5.6
				c0-3.2,2.4-5.7,5.6-5.7C32.7,60,34.8,62.2,34.8,65.1z M26.6,64.6h5.9c0-1.6-1.1-2.6-2.8-2.6C28.2,62,27,63.1,26.6,64.6z"/>
			<path class="st2" d="M37.5,69.7c-0.2-0.2-0.3-0.4-0.3-0.7c0-0.6,0.5-1,1-1c0.2,0,0.5,0.1,0.7,0.3c0.7,0.6,1.5,1.1,2.5,1.1
				c0.9,0,1.7-0.4,1.7-1.2c0-0.7-0.6-1-1.5-1.3l-1.1-0.5c-1.7-0.7-2.8-1.5-2.8-3.1c0-2,1.7-3.1,3.8-3.1c1.4,0,2.6,0.5,3.4,1.3
				c0.2,0.2,0.4,0.5,0.4,0.8c0,0.5-0.4,1-1,1c-0.2,0-0.4-0.1-0.7-0.3c-0.6-0.4-1.3-0.7-2.1-0.7c-0.9,0-1.5,0.3-1.5,1
				c0,0.6,0.4,0.9,1.4,1.3l1,0.4c2,0.8,2.9,1.7,2.9,3.3c0,2.2-1.8,3.3-4,3.3C39.8,71.3,38.4,70.7,37.5,69.7z"/>
			<path class="st2" d="M58.3,64.3v5.8c0,0.7-0.5,1.2-1.1,1.2c-0.7,0-1.2-0.5-1.2-1.2v-5.5c0-1.5-0.9-2.5-2.4-2.5
				c-1.4,0-2.5,1.1-2.5,2.5v5.5c0,0.7-0.5,1.2-1.1,1.2s-1.2-0.5-1.2-1.2v-8.9c0-0.7,0.5-1.2,1.2-1.2c0.6,0,1.1,0.5,1.1,1.2
				c0.8-0.7,1.8-1.2,3.1-1.2C56.7,60,58.3,61.7,58.3,64.3z"/>
			<path class="st2" d="M72,65.1v0.1c0,0.8-0.5,1.3-1.3,1.3h-6.9c0.3,1.7,1.6,2.8,3.5,2.8c0.9,0,1.8-0.3,2.5-0.8
				c0.2-0.1,0.4-0.2,0.6-0.2c0.6,0,1,0.4,1,1c0,0.4-0.2,0.7-0.6,1c-1,0.8-2.2,1.2-3.6,1.2c-3.3,0-5.8-2.4-5.8-5.6
				c0-3.2,2.4-5.7,5.6-5.7C69.9,60,72,62.2,72,65.1z M63.9,64.6h5.9c0-1.6-1.1-2.6-2.8-2.6C65.4,62,64.2,63.1,63.9,64.6z M66.4,57.7
				c0-0.2,0.1-0.4,0.2-0.5l1.2-2.8c0.2-0.4,0.6-0.7,1.1-0.7c0.6,0,1.1,0.5,1.1,1.2c0,0.2,0,0.4-0.2,0.6l-1.5,2.6
				c-0.2,0.3-0.5,0.6-0.9,0.6C66.8,58.7,66.4,58.2,66.4,57.7z"/>
			<path class="st2" d="M92.9,65.7c0,3.1-2.5,5.7-5.7,5.7c-3.2,0-5.7-2.5-5.7-5.7c0-3.2,2.5-5.6,5.7-5.6
				C90.4,60,92.9,62.5,92.9,65.7z M83.8,65.7c0,2,1.4,3.5,3.3,3.5s3.4-1.5,3.4-3.5c0-2-1.5-3.5-3.3-3.5
				C85.3,62.2,83.8,63.7,83.8,65.7z"/>
			<path class="st2" d="M104,70.1c0,0.6-0.4,1-1,1h-7.3c-0.5,0-1-0.4-1-1c0-0.3,0.1-0.5,0.4-0.9l5.5-6.9h-4.6c-0.6,0-1-0.4-1-1
				c0-0.6,0.4-1,1-1h6.7c0.6,0,1,0.4,1,1c0,0.4-0.2,0.6-0.4,0.9l-5.6,7h5.1C103.5,69.1,104,69.5,104,70.1z"/>
			<path class="st2" d="M116.1,64.3v5.8c0,0.7-0.5,1.2-1.1,1.2c-0.7,0-1.2-0.5-1.2-1.2v-5.5c0-1.5-0.9-2.5-2.4-2.5
				c-1.4,0-2.5,1.1-2.5,2.5v5.5c0,0.7-0.5,1.2-1.1,1.2s-1.2-0.5-1.2-1.2v-8.9c0-0.7,0.5-1.2,1.2-1.2c0.6,0,1.1,0.5,1.1,1.2
				c0.8-0.7,1.8-1.2,3.1-1.2C114.5,60,116.1,61.7,116.1,64.3z"/>
			<path class="st2" d="M128.6,64.6v5.6c0,0.7-0.5,1.2-1.1,1.2c-0.7,0-1.1-0.5-1.1-1.2V70c-0.8,0.8-1.9,1.3-3.3,1.3
				c-2.2,0-3.8-1.3-3.8-3.1c0-1.9,1.5-3.1,4-3.1h3.1v-0.7c0-1.5-0.8-2.3-2.3-2.3c-0.9,0-1.7,0.3-2.4,1c-0.3,0.2-0.5,0.4-0.8,0.4
				c-0.6,0-1-0.5-1-1c0-0.3,0.2-0.6,0.5-0.9c0.9-1,2.4-1.5,3.9-1.5C126.9,60,128.6,61.7,128.6,64.6z M126.2,67v-0.2h-2.8
				c-1.3,0-1.9,0.5-1.9,1.3c0,0.9,0.7,1.4,1.9,1.4C125,69.6,126.2,68.4,126.2,67z"/>
			<path class="st2" d="M142,68.5c0,0.2,0,0.4-0.2,0.6c-0.9,1.3-2.4,2.2-4.4,2.2c-3.2,0-5.7-2.5-5.7-5.7c0-3.1,2.5-5.6,5.7-5.6
				c1.9,0,3.5,0.9,4.4,2.2c0.2,0.3,0.2,0.4,0.2,0.6c0,0.6-0.5,1.1-1,1.1c-0.3,0-0.6-0.1-0.8-0.4c-0.6-0.8-1.5-1.4-2.7-1.4
				c-1.9,0-3.4,1.5-3.4,3.5c0,2,1.4,3.5,3.4,3.5c1.2,0,2-0.6,2.7-1.3c0.3-0.3,0.5-0.4,0.8-0.4C141.5,67.5,142,67.9,142,68.5z
				 M134.3,55.4c-0.2-0.2-0.3-0.4-0.3-0.7c0-0.5,0.4-0.9,0.9-0.9c0.3,0,0.5,0.1,0.7,0.3l1.8,2l1.8-2c0.2-0.2,0.4-0.3,0.7-0.3
				c0.5,0,0.9,0.4,0.9,0.9c0,0.3-0.1,0.5-0.3,0.7l-2.3,2.9c-0.2,0.3-0.6,0.4-0.9,0.4c-0.3,0-0.6-0.1-0.9-0.4L134.3,55.4z"/>
			<path class="st2" d="M155,65.1v0.1c0,0.8-0.5,1.3-1.3,1.3h-6.9c0.3,1.7,1.6,2.8,3.5,2.8c0.9,0,1.8-0.3,2.5-0.8
				c0.2-0.1,0.4-0.2,0.6-0.2c0.5,0,1,0.4,1,1c0,0.4-0.2,0.7-0.6,1c-1,0.8-2.2,1.2-3.6,1.2c-3.3,0-5.8-2.4-5.8-5.6
				c0-3.2,2.4-5.7,5.6-5.7C152.8,60,155,62.2,155,65.1z M146.8,64.6h5.9c0-1.6-1.1-2.6-2.8-2.6C148.3,62,147.1,63.1,146.8,64.6z"/>
			<path class="st2" d="M167.7,64.3v5.8c0,0.7-0.5,1.2-1.1,1.2c-0.7,0-1.2-0.5-1.2-1.2v-5.5c0-1.5-0.9-2.5-2.4-2.5
				c-1.4,0-2.5,1.1-2.5,2.5v5.5c0,0.7-0.5,1.2-1.1,1.2c-0.7,0-1.2-0.5-1.2-1.2v-8.9c0-0.7,0.5-1.2,1.2-1.2c0.6,0,1.1,0.5,1.1,1.2
				c0.8-0.7,1.8-1.2,3.1-1.2C166.1,60,167.7,61.7,167.7,64.3z"/>
			<path class="st2" d="M171.6,70.1v-8.9c0-0.7,0.5-1.2,1.2-1.2c0.7,0,1.1,0.5,1.1,1.2v8.9c0,0.7-0.5,1.2-1.2,1.2
				S171.6,70.8,171.6,70.1z M171.9,57.8c0-0.2,0-0.4,0.1-0.5l0.7-2.9c0.1-0.4,0.5-0.8,1-0.9c0.6-0.1,1.2,0.3,1.3,1
				c0,0.2,0,0.4-0.1,0.6l-1,2.8c-0.1,0.4-0.4,0.7-0.8,0.7C172.5,58.7,172,58.3,171.9,57.8z"/>
		</g>
		<g>
			<path class="st3" d="M266.4,81.5c-0.1-0.4-6.9-18.6-7-19c-0.2-0.4-0.4-0.8-0.5-1c-5.1,5-10.1,10-15.1,15.1
				c4.2,1.6,8.4,3.2,12.6,4.7c0,0.1-255.9,1.3-255.9,1.3c-0.7,0-0.7,0.3,0,0.3c0,0,259.5,1.2,263.8,1.2
				C266.1,84.2,266.8,83.1,266.4,81.5z"/>
			<path class="st3" d="M246.5,40.1c2.9-2.9,2.9-7.6,0-10.5L219,2.2c-2.9-2.9-7.6-2.9-10.5,0s-2.9,7.6,0,10.5L236,40.1
				C238.9,43,243.6,43,246.5,40.1z"/>
			<path class="st3" d="M222.6,64c2.9-2.9,2.8-7.7-0.1-10.6L171.4,2.3c-3-3-7.7-3-10.6-0.1s-2.8,7.7,0.1,10.6l51.1,51.1
				C214.9,66.8,219.7,66.9,222.6,64z"/>
			<path class="st3" d="M234.5,52.1c2.9-2.9,2.9-7.6-0.1-10.5L195.2,2.3c-2.9-2.9-7.7-3-10.5-0.1s-2.9,7.6,0.1,10.5L224,52
				C226.9,54.9,231.6,54.9,234.5,52.1z"/>
		</g>
	</g>
</g>
</svg>
