<?xml version="1.0" encoding="utf-8"?>
<!-- Generator: Adobe Illustrator 23.0.1, SVG Export Plug-In . SVG Version: 6.00 Build 0)  -->
<svg version="1.1" id="Слой_1" xmlns="http://www.w3.org/2000/svg" xmlns:xlink="http://www.w3.org/1999/xlink" x="0px" y="0px"
	 width="198.5px" height="103.7px" viewBox="0 0 198.5 103.7" style="enable-background:new 0 0 198.5 103.7;" xml:space="preserve"
	>
<style type="text/css">
	.st0{fill:#FFFFFF;}
	.st1{fill:#FFE000;}
</style>
<g>
	<g>
		<path class="st0" d="M100.4,68.4c-0.3-0.7-1.1-1.2-1.9-1.2h-5.2c-0.8,0-1.4,0.9-1,1.6l9.6,19.5c0.2,0.3,0.6,0.3,0.7,0l2.4-5.3
			c0.6-1.3,0.6-2.8,0-4.1C103.6,75.3,100.4,68.4,100.4,68.4z"/>
	</g>
	<g>
		<path class="st0" d="M122.5,68.8l-11,22.5v10.3c0,0.9-0.7,1.6-1.6,1.6h-4.8c-0.9,0-1.6-0.7-1.6-1.6V99c0-4.2,0.9-8.3,2.6-12.1
			c2.1-4.7,3.2-6.9,3.2-6.9l5.3-11.6c0.3-0.7,1.1-1.2,1.9-1.2h5.1C122.3,67.2,122.9,68.1,122.5,68.8z"/>
	</g>
	<g>
		<path class="st0" d="M28.1,101.5l-8.5-13.7c-0.7-1.2-2-2.5-3-3.2v-0.1v-0.1c1-0.8,1.9-1.6,2.6-2.9l8.2-12.6
			c0.5-0.7-0.1-1.7-0.9-1.7h-5.3c-0.8,0-1.6,0.4-2,1.1L12,79.8c-0.9,1.4-1.4,3.1-1.4,4.8v0c0,1.6,0.4,3.2,1.3,4.6l7.8,12.9
			c0.4,0.7,1.2,1.2,2,1.2h5.5C28.1,103.2,28.6,102.3,28.1,101.5z"/>
	</g>
	<g>
		<path class="st0" d="M8.1,68.8v32.8c0,0.9-0.7,1.6-1.6,1.6H1.8c-0.9,0-1.6-0.7-1.6-1.6V68.8c0-0.9,0.7-1.6,1.6-1.6h4.8
			C7.4,67.2,8.1,67.9,8.1,68.8z"/>
	</g>
	<g>
		<path class="st0" d="M60.6,101.8L57.8,92c-0.8-3.7-3.3-5-5.1-5.4v-0.3c5.1-0.6,6.9-3.9,6.9-8.9c0-8.2-3.9-10.6-13.3-10.6
			c-5.7,0-8.7,0-12.3,0.3c-0.8,0.1-1.5,0.8-1.5,1.6l0,3.8c0,0.2,0.2,0.4,0.4,0.4c9.9,0,6.2,0,13.2,0c4.2,0,5.4,1,5.4,5.1
			c0,4-1.3,5.1-5.4,5.1h-5.7v-7.2c0-0.2-0.2-0.4-0.4-0.4H35c-1.4,0-2.5,1.1-2.5,2.5v23.8c0,0.9,0.7,1.6,1.6,1.6h4.7
			c0.9,0,1.6-0.7,1.6-1.6V89.1l5.6,0.1c2.1,0,3.2,0.7,3.9,3l2.3,9.4c0.2,0.9,1.1,1.6,2,1.6h5.3C60.2,103.2,60.8,102.5,60.6,101.8z"
			/>
	</g>
	<g>
		<path class="st0" d="M87.1,97H74.8c-1.7,0-2.5-0.8-2.5-2.7V76.1c0-1.9,0.7-2.7,2.5-2.7h12.3c0.8,0,1.5-0.7,1.6-1.5l0.2-2.9
			c0.1-0.9-0.6-1.6-1.5-1.7C82.8,67,77.3,67,72.3,67c-4.8,0-7.9,2.8-7.9,7.3v21.8c0.1,4.4,3.1,7.3,7.9,7.3c5,0,10.5,0,15.2-0.4
			c0.9-0.1,1.5-0.8,1.4-1.7l-0.2-2.8C88.7,97.6,88,97,87.1,97z M74.8,84.1v2.9c0,0.2,0.2,0.4,0.4,0.4h9.9c0.9,0,1.6-0.7,1.6-1.6
			v-2.6c0-0.9-0.7-1.6-1.6-1.6h-7.8C75.9,81.6,74.8,82.7,74.8,84.1z"/>
	</g>
	<g>
		<path class="st0" d="M141,66.7c-4.8,0-8.8,0.2-12.5,0.4c-0.8,0-1.5,0.7-1.5,1.6l0,3.9c0,0.2,0.2,0.4,0.4,0.4c5.9,0,9.9,0,13.6-0.1
			c5.4,0,7,2.8,7,12.3c0,9.4-1.6,12.2-7,12.2c-2.2,0-4.2-0.1-6.1-0.1V75.9c0-0.2-0.2-0.4-0.4-0.4h-5c-1.4,0-2.5,1.1-2.5,2.5v23.8
			c0,0.8,0.7,1.5,1.5,1.6c3.7,0.2,7.7,0.4,12.5,0.4c11.3,0,15.3-4.2,15.3-18.5S152.3,66.7,141,66.7z"/>
	</g>
	<g>
		<path class="st0" d="M190.7,101.8l-9.9-32.5c-0.3-1.3-1.4-2.1-2.8-2.1h-7.5c-1.3,0-2.5,0.8-2.8,2.1l-9.9,32.5
			c-0.2,0.7,0.3,1.4,1.1,1.4h5.1c0.9,0,1.7-0.6,2-1.5c1.9-6.9,2.5-9.2,6.9-25.1c0.3-1.1,0.5-2.3,0.8-3.4h1.4
			c0.2,1.1,0.5,2.3,0.7,3.4l3,11h-4.5c-1.1,0-2.1,0.7-2.4,1.8l-1,3.8c-0.1,0.3,0.1,0.5,0.4,0.5h9.3l2.2,7.9c0.2,0.9,1.1,1.5,2,1.5h5
			C190.4,103.2,190.9,102.5,190.7,101.8z"/>
	</g>
	<g>
		<path class="st0" d="M195.5,75.8l-0.5-1.5c-0.2-0.8-0.7-0.9-1.1-1v-0.1c1.1-0.1,1.4-0.7,1.4-1.4c0-1.4-0.9-1.8-2.9-1.8
			c-1.2,0-1.8,0-2.5,0.1c-0.2,0-0.3,0.2-0.3,0.4v0.9c0,0.1,0.1,0.1,0.1,0.1h2.7c0.7,0,0.8,0.1,0.8,0.6c0,0.5-0.2,0.6-0.8,0.6h-0.8
			v-0.5c0-0.1-0.1-0.1-0.1-0.1h-1.5c-0.2,0-0.4,0.2-0.4,0.4v3.3c0,0.2,0.2,0.4,0.4,0.4h1.3c0.2,0,0.4-0.2,0.4-0.4v-1.8h0.7
			c0.4,0,0.5,0.1,0.6,0.4l0.3,1.4c0.1,0.2,0.2,0.4,0.5,0.4h1.5C195.5,76.1,195.6,75.9,195.5,75.8z M192.4,67.1
			c-3.4,0-6.2,2.7-6.2,6.1c0,3.4,2.7,6.2,6.2,6.2c3.4,0,6.1-2.7,6.1-6.2C198.5,69.8,195.8,67.1,192.4,67.1z M192.4,77.9
			c-2.6,0-4.7-2.1-4.7-4.7s2.1-4.8,4.7-4.8c2.5,0,4.7,2.1,4.7,4.8S194.9,77.9,192.4,77.9z"/>
	</g>
	<g>
		<path class="st0" d="M3.2,48.5v-5.9H1.1c-0.4,0-0.8-0.3-0.8-0.8c0-0.4,0.3-0.7,0.8-0.7H7c0.4,0,0.8,0.3,0.8,0.7
			c0,0.4-0.3,0.8-0.8,0.8H4.9v5.9c0,0.5-0.4,0.9-0.9,0.9C3.6,49.4,3.2,49,3.2,48.5z"/>
		<path class="st0" d="M17.5,45.1c0,2.4-1.9,4.3-4.3,4.3c-2.4,0-4.3-1.9-4.3-4.3c0-2.4,1.9-4.3,4.3-4.3
			C15.6,40.8,17.5,42.7,17.5,45.1z M10.6,45.1c0,1.5,1.1,2.6,2.5,2.6c1.4,0,2.5-1.1,2.5-2.6c0-1.5-1.1-2.7-2.5-2.7
			C11.7,42.4,10.6,43.6,10.6,45.1z"/>
		<path class="st0" d="M26.4,41.7v6.7c0,0.5-0.4,0.9-0.9,0.9c-0.5,0-0.9-0.4-0.9-0.9v-2.2c-0.5,0.2-1.1,0.3-1.7,0.3
			c-2.3,0-3.7-1.5-3.7-3.7v-1c0-0.5,0.4-0.9,0.9-0.9c0.5,0,0.9,0.4,0.9,0.9v0.9c0,1.4,0.7,2.2,2.1,2.2c0.5,0,1-0.1,1.5-0.2v-2.9
			c0-0.5,0.4-0.9,0.9-0.9C26,40.8,26.4,41.2,26.4,41.7z"/>
		<path class="st0" d="M36.6,41.7v6.7c0,0.5-0.4,0.9-0.9,0.9c-0.5,0-0.9-0.4-0.9-0.9v-2.8h-3.6v2.8c0,0.5-0.4,0.9-0.9,0.9
			c-0.5,0-0.9-0.4-0.9-0.9v-6.7c0-0.5,0.4-0.9,0.9-0.9c0.5,0,0.9,0.4,0.9,0.9v2.4h3.6v-2.4c0-0.5,0.4-0.9,0.9-0.9
			C36.2,40.8,36.6,41.2,36.6,41.7z"/>
		<path class="st0" d="M46.1,44.2v4.2c0,0.5-0.4,0.9-0.9,0.9c-0.5,0-0.9-0.4-0.9-0.9v-0.1c-0.6,0.6-1.5,1-2.5,1
			c-1.7,0-2.8-0.9-2.8-2.4c0-1.4,1.2-2.3,3-2.3h2.3v-0.5c0-1.1-0.6-1.7-1.7-1.7c-0.7,0-1.3,0.2-1.8,0.8c-0.2,0.2-0.4,0.3-0.6,0.3
			c-0.4,0-0.8-0.3-0.8-0.7c0-0.2,0.1-0.5,0.3-0.7c0.7-0.7,1.8-1.1,3-1.1C44.8,40.8,46.1,42.1,46.1,44.2z M44.3,46.1v-0.1h-2.1
			c-0.9,0-1.4,0.3-1.4,1c0,0.7,0.6,1.1,1.4,1.1C43.4,48,44.3,47.2,44.3,46.1z"/>
		<path class="st0" d="M62.7,45.1c0,2.5-1.7,4.3-4,4.3c-1.1,0-2.1-0.4-2.7-1.2v3.3c0,0.5-0.4,0.9-0.9,0.9c-0.5,0-0.9-0.4-0.9-0.9
			v-9.8c0-0.5,0.4-0.9,0.9-0.9c0.5,0,0.8,0.4,0.8,0.9V42c0.6-0.7,1.6-1.2,2.7-1.2C61,40.8,62.7,42.6,62.7,45.1z M60.9,45.1
			c0-1.5-1-2.7-2.5-2.7c-1.5,0-2.5,1.1-2.5,2.7c0,1.6,1,2.7,2.5,2.7C59.9,47.8,60.9,46.6,60.9,45.1z"/>
		<path class="st0" d="M73.3,45.1c0,2.4-1.9,4.3-4.3,4.3c-2.4,0-4.3-1.9-4.3-4.3c0-2.4,1.9-4.3,4.3-4.3
			C71.4,40.8,73.3,42.7,73.3,45.1z M66.4,45.1c0,1.5,1.1,2.6,2.5,2.6c1.4,0,2.5-1.1,2.5-2.6c0-1.5-1.1-2.7-2.5-2.7
			C67.5,42.4,66.4,43.6,66.4,45.1z"/>
		<path class="st0" d="M81.7,46.9c0,1.5-1.4,2.5-3.4,2.5c-1.2,0-2.2-0.3-2.9-1c-0.3-0.2-0.4-0.4-0.4-0.7c0-0.4,0.3-0.8,0.8-0.8
			c0.2,0,0.3,0,0.5,0.2c0.5,0.4,1.1,0.6,1.9,0.6c1.1,0,1.7-0.4,1.7-1.1c0-0.7-0.6-1.1-1.5-1.1h-0.9c-0.4,0-0.7-0.3-0.7-0.7
			s0.3-0.7,0.7-0.7h0.8c0.8,0,1.2-0.3,1.2-0.9c0-0.6-0.5-0.9-1.4-0.9c-0.7,0-1.3,0.2-1.7,0.5c-0.2,0.1-0.3,0.2-0.5,0.2
			c-0.4,0-0.8-0.3-0.8-0.8c0-0.2,0.1-0.4,0.4-0.7c0.6-0.5,1.6-0.9,2.7-0.9c1.9,0,3.1,0.9,3.1,2.3c0,0.7-0.3,1.4-0.9,1.8
			C81.2,45.3,81.7,46,81.7,46.9z"/>
		<path class="st0" d="M84.3,48.5v-6.7c0-0.5,0.4-0.9,0.9-0.9c0.3,0,0.5,0.1,0.7,0.4l2.9,3.8l2.9-3.8c0.2-0.2,0.4-0.4,0.7-0.4
			c0.5,0,0.9,0.4,0.9,0.9v6.7c0,0.5-0.4,0.9-0.9,0.9c-0.5,0-0.9-0.4-0.9-0.9v-4.2l-2.1,2.7c-0.1,0.2-0.4,0.3-0.6,0.3
			c-0.2,0-0.4-0.1-0.6-0.3L86,44.2v4.2c0,0.5-0.4,0.9-0.9,0.9C84.6,49.4,84.3,49,84.3,48.5z"/>
		<path class="st0" d="M96.1,48.5v-6.7c0-0.5,0.4-0.9,0.9-0.9c0.5,0,0.9,0.4,0.9,0.9v6.7c0,0.5-0.4,0.9-0.9,0.9
			C96.5,49.4,96.1,49,96.1,48.5z"/>
		<path class="st0" d="M102.6,48.5v-5.9h-2.1c-0.4,0-0.8-0.3-0.8-0.8c0-0.4,0.3-0.7,0.8-0.7h5.9c0.4,0,0.8,0.3,0.8,0.7
			c0,0.4-0.3,0.8-0.8,0.8h-2.1v5.9c0,0.5-0.4,0.9-0.9,0.9C103,49.4,102.6,49,102.6,48.5z"/>
		<path class="st0" d="M110.8,41.7v6.7c0,0.5-0.4,0.9-0.9,0.9c-0.5,0-0.9-0.4-0.9-0.9v-6.7c0-0.5,0.4-0.9,0.9-0.9
			C110.4,40.8,110.8,41.2,110.8,41.7z M116.1,48.5c0,0.4-0.4,0.8-0.8,0.8c-0.2,0-0.5-0.1-0.6-0.3l-3.2-3.7c-0.2-0.2-0.2-0.4-0.2-0.6
			c0-0.2,0.1-0.4,0.3-0.6l2.9-3c0.1-0.2,0.4-0.3,0.6-0.3c0.5,0,0.8,0.4,0.8,0.8c0,0.2-0.1,0.4-0.2,0.6l-2.4,2.5l2.8,3.2
			C116,48.1,116.1,48.3,116.1,48.5z"/>
		<path class="st0" d="M124.8,44.2v4.2c0,0.5-0.4,0.9-0.9,0.9c-0.5,0-0.9-0.4-0.9-0.9v-0.1c-0.6,0.6-1.5,1-2.5,1
			c-1.7,0-2.8-0.9-2.8-2.4c0-1.4,1.2-2.3,3-2.3h2.3v-0.5c0-1.1-0.6-1.7-1.7-1.7c-0.7,0-1.3,0.2-1.8,0.8c-0.2,0.2-0.4,0.3-0.6,0.3
			c-0.4,0-0.8-0.3-0.8-0.7c0-0.2,0.1-0.5,0.3-0.7c0.7-0.7,1.8-1.1,3-1.1C123.6,40.8,124.8,42.1,124.8,44.2z M123.1,46.1v-0.1H121
			c-0.9,0-1.4,0.3-1.4,1c0,0.7,0.6,1.1,1.4,1.1C122.1,48,123.1,47.2,123.1,46.1z"/>
	</g>
	<g>
		<path class="st1" d="M184.3,56.3c-0.1-0.2-4.8-12.9-4.9-13.1c-0.1-0.3-0.3-0.5-0.3-0.7c-3.5,3.5-7,6.9-10.5,10.4
			c2.9,1.1,5.8,2.2,8.7,3.3c0,0.1-177,0.9-177,0.9c-0.5,0-0.5,0.2,0,0.2c0,0,179.5,0.8,182.5,0.8C184,58.2,184.5,57.5,184.3,56.3z"
			/>
		<path class="st1" d="M170.5,27.7c2-2,2-5.2,0-7.3l-19-19c-2-2-5.2-2-7.3,0c-2,2-2,5.2,0,7.3l19,19
			C165.2,29.7,168.5,29.7,170.5,27.7z"/>
		<path class="st1" d="M153.9,44.3c2-2,2-5.2,0-7.3L119.5,2.6c-2-2-5.2-2-7.3,0c-2,2-2,5.2,0,7.3l34.4,34.4
			C148.7,46.3,151.9,46.3,153.9,44.3z"/>
		<path class="st1" d="M162.2,36c2-2,2-5.2,0-7.3L135.4,1.9c-2-2-5.2-2-7.3,0c-2,2-2,5.2,0,7.3L154.9,36C156.9,38,160.2,38,162.2,36
			z"/>
	</g>
</g>
</svg>
