<?xml version="1.0" encoding="utf-8"?>
<!-- Generator: Adobe Illustrator 20.1.0, SVG Export Plug-In . SVG Version: 6.00 Build 0)  -->
<svg version="1.1" xmlns="http://www.w3.org/2000/svg" xmlns:xlink="http://www.w3.org/1999/xlink" x="0px" y="0px" width="287px"
	 height="149.9px" viewBox="0 0 287 149.9" style="enable-background:new 0 0 287 149.9;" xml:space="preserve">
<style type="text/css">
	.st0{display:none;}
	.st1{display:inline;fill:#010202;}
	.st2{fill:#FFFFFF;}
	.st3{fill:#FFE500;}
</style>
<g id="Слой_2" class="st0">
	<rect class="st1" width="287" height="149.9"/>
</g>
<g id="Слой_1">
	<g>
		<g>
			<path class="st2" d="M145.2,98.9c-0.5-1.1-1.5-1.7-2.7-1.7H135c-1.2,0-2,1.2-1.4,2.3l13.9,28.2c0.2,0.5,0.9,0.4,1.1,0l3.5-7.7
				c0.9-1.9,0.9-4,0-5.9C149.8,108.9,145.2,98.9,145.2,98.9z"/>
		</g>
		<g>
			<path class="st2" d="M177.1,99.5L161.2,132v14.9c0,1.3-1,2.3-2.3,2.3h-7c-1.3,0-2.3-1-2.3-2.3v-3.8c0-6,1.3-12,3.8-17.5
				c3.1-6.8,4.6-10,4.6-10l7.6-16.7c0.5-1.1,1.5-1.7,2.7-1.7h7.4C176.9,97.2,177.6,98.4,177.1,99.5z"/>
		</g>
		<g>
			<path class="st2" d="M40.7,146.8L28.5,127c-1.1-1.7-2.9-3.5-4.4-4.6v-0.2v-0.1c1.5-1.1,2.7-2.3,3.8-4.1l11.8-18.3
				c0.7-1.1-0.1-2.5-1.3-2.5h-7.6c-1.2,0-2.3,0.6-2.9,1.6l-10.5,16.6c-1.3,2.1-2,4.4-2,6.9v0c0,2.3,0.6,4.6,1.8,6.6l11.2,18.7
				c0.6,1,1.7,1.7,2.9,1.7h8C40.6,149.2,41.4,147.8,40.7,146.8z"/>
		</g>
		<g>
			<path class="st2" d="M11.7,99.5v47.5c0,1.3-1,2.3-2.3,2.3H2.5c-1.3,0-2.3-1-2.3-2.3V99.5c0-1.3,1-2.3,2.3-2.3h6.9
				C10.7,97.2,11.7,98.2,11.7,99.5z"/>
		</g>
		<g>
			<path class="st2" d="M87.6,147.2l-4-14.2c-1.2-5.4-4.8-7.2-7.4-7.8v-0.4c7.4-0.9,10-5.6,10-12.9c0-11.9-5.7-15.4-19.2-15.4
				c-8.3,0-12.5,0.1-17.7,0.5c-1.2,0.1-2.1,1.1-2.1,2.3l0,5.5c0,0.3,0.3,0.6,0.6,0.6c14.3,0,8.9,0,19-0.1c6,0,7.8,1.5,7.8,7.3
				c0,5.7-1.8,7.4-7.8,7.4h-8.3v-10.4c0-0.3-0.3-0.6-0.6-0.6h-7.2c-2,0-3.6,1.6-3.6,3.6v34.4c0,1.3,1,2.3,2.3,2.3h6.7
				c1.3,0,2.3-1,2.3-2.3v-18.1l8.1,0.1c3.1,0,4.6,1.1,5.6,4.4l3.4,13.7c0.3,1.3,1.5,2.3,2.9,2.3H86
				C87.1,149.2,87.9,148.2,87.6,147.2z"/>
		</g>
		<g>
			<path class="st2" d="M126,140.2h-17.8c-2.5,0-3.5-1.1-3.5-3.9v-26.3c0-2.7,1.1-3.8,3.5-3.8H126c1.2,0,2.2-0.9,2.3-2.2l0.3-4.2
				c0.1-1.2-0.9-2.3-2.1-2.4c-6.7-0.5-14.7-0.5-21.9-0.5c-6.9,0-11.4,4.1-11.5,10.5V139c0.1,6.4,4.5,10.5,11.5,10.5
				c7.2,0,15.2,0,21.9-0.5c1.2-0.1,2.2-1.2,2.1-2.4l-0.3-4.1C128.2,141.2,127.2,140.2,126,140.2z M108.2,121.6v4.1
				c0,0.3,0.3,0.6,0.6,0.6h14.3c1.3,0,2.3-1,2.3-2.3v-3.7c0-1.3-1-2.3-2.3-2.3h-11.3C109.8,118,108.2,119.6,108.2,121.6z"/>
		</g>
		<g>
			<path class="st2" d="M203.8,96.5c-7,0-12.7,0.2-18.1,0.5c-1.2,0.1-2.2,1.1-2.2,2.3l0,5.6c0,0.3,0.3,0.6,0.6,0.6
				c8.6,0,14.3,0,19.6-0.1c7.8,0,10.1,4.1,10.1,17.7c0,13.7-2.3,17.7-10.1,17.7c-3.2,0-6.1-0.1-8.8-0.1v-31c0-0.3-0.3-0.6-0.6-0.6
				h-7.3c-2,0-3.6,1.6-3.6,3.6v34.4c0,1.2,0.9,2.2,2.2,2.3c5.4,0.3,11.2,0.6,18.1,0.6c16.4,0,22.2-6.1,22.2-26.7
				S220.2,96.5,203.8,96.5z"/>
		</g>
		<g>
			<path class="st2" d="M275.7,147.2l-14.4-47c-0.4-1.9-2-3-4-3h-10.9c-1.9,0-3.5,1.1-4,3l-14.4,47c-0.3,1,0.5,2.1,1.5,2.1h7.3
				c1.3,0,2.5-0.9,2.9-2.2c2.8-10,3.7-13.4,10-36.3c0.4-1.6,0.8-3.3,1.1-4.9h2c0.2,1.6,0.7,3.3,1.1,4.9l4.4,15.9h-6.5
				c-1.6,0-3,1.1-3.4,2.6l-1.5,5.5c-0.1,0.4,0.2,0.8,0.6,0.8h13.4L264,147c0.4,1.3,1.5,2.2,2.9,2.2h7.3
				C275.2,149.2,276,148.2,275.7,147.2z"/>
		</g>
		<g>
			<path class="st2" d="M282.7,109.6l-0.7-2.2c-0.3-1.2-1-1.4-1.6-1.4v-0.1c1.6-0.2,2-1.1,2-2.1c0-2-1.3-2.6-4.2-2.6
				c-1.7,0-2.6,0-3.7,0.1c-0.3,0-0.5,0.2-0.5,0.5v1.3c0,0.1,0.1,0.2,0.2,0.2h3.9c1,0,1.2,0.1,1.2,0.8c0,0.7-0.2,0.9-1.2,0.9h-1.1
				v-0.8c0-0.1-0.1-0.2-0.2-0.2h-2.1c-0.4,0-0.6,0.3-0.6,0.6v4.8c0,0.3,0.2,0.5,0.5,0.5h1.9c0.3,0,0.5-0.2,0.5-0.5v-2.6h1
				c0.5,0,0.7,0.1,0.9,0.6l0.5,2c0.1,0.3,0.4,0.5,0.7,0.5h2.1C282.6,110,282.8,109.8,282.7,109.6z M278.1,97c-5,0-8.9,4-8.9,8.9
				c0,5,4,8.9,8.9,8.9c4.9,0,8.9-4,8.9-8.9C287,100.9,283.1,97,278.1,97z M278.1,112.7c-3.8,0-6.8-3.1-6.8-6.9
				c0-3.8,3.1-6.9,6.8-6.9c3.7,0,6.8,3.1,6.8,6.9C284.9,109.6,281.8,112.7,278.1,112.7z"/>
		</g>
		<g>
			<path class="st2" d="M16.5,65v5.3c0,0.6-0.5,1.1-1.1,1.1c-0.6,0-1.1-0.5-1.1-1.1v-5c0-1.4-0.8-2.3-2-2.3c-1.2,0-2.2,0.9-2.2,2.2
				v5.1c0,0.6-0.5,1.1-1,1.1c-0.6,0-1.1-0.5-1.1-1.1v-5C8.1,63.9,7.3,63,6,63c-1.3,0-2.2,0.9-2.2,2.3v5c0,0.6-0.4,1.1-1,1.1
				s-1.1-0.5-1.1-1.1v-8.1c0-0.6,0.4-1.1,1.1-1.1c0.6,0,1,0.4,1,1c0.7-0.6,1.6-1,2.7-1c1.3,0,2.4,0.5,3,1.5c0.7-1,1.9-1.5,3.3-1.5
				C15.1,61.1,16.5,62.6,16.5,65z"/>
			<path class="st2" d="M27.9,65.2v5.1c0,0.6-0.4,1.1-1,1.1s-1-0.5-1-1.1v-0.1c-0.7,0.8-1.8,1.2-3,1.2c-2,0-3.4-1.1-3.4-2.8
				c0-1.7,1.4-2.8,3.6-2.8h2.8V65c0-1.3-0.8-2.1-2.1-2.1c-0.8,0-1.6,0.3-2.2,0.9c-0.3,0.2-0.5,0.3-0.7,0.3c-0.5,0-0.9-0.4-0.9-0.9
				c0-0.3,0.1-0.6,0.4-0.9c0.8-0.9,2.1-1.4,3.6-1.4C26.4,61.1,27.9,62.6,27.9,65.2z M25.8,67.4v-0.2h-2.5c-1.1,0-1.7,0.4-1.7,1.2
				c0,0.8,0.7,1.3,1.7,1.3C24.6,69.7,25.8,68.7,25.8,67.4z"/>
			<path class="st2" d="M37.2,62.1c0,0.6-0.4,1-1,1c-1.6,0-2.7,1.1-2.7,2.7v4.4c0,0.6-0.4,1.1-1,1.1s-1.1-0.5-1.1-1.1v-8.1
				c0-0.6,0.4-1.1,1.1-1.1c0.6,0,1,0.5,1,1.1v0.3c0.7-0.8,1.6-1.3,2.7-1.3C36.8,61.2,37.2,61.6,37.2,62.1z"/>
			<path class="st2" d="M38.6,66.2c0-2.9,2.3-5.1,5.2-5.1c1.7,0,3.2,0.8,4,2c0.2,0.2,0.2,0.4,0.2,0.6c0,0.5-0.4,1-0.9,1
				c-0.3,0-0.5-0.1-0.7-0.3c-0.6-0.7-1.4-1.2-2.5-1.2c-1.8,0-3.1,1.4-3.1,3.2c0,1.9,1.3,3.2,3.1,3.2c1.1,0,1.9-0.5,2.5-1.2
				c0.2-0.3,0.5-0.3,0.7-0.3c0.5,0,0.9,0.4,0.9,0.9c0,0.2,0,0.3-0.2,0.5c-0.8,1.2-2.2,2-4,2C40.9,71.3,38.6,69.1,38.6,66.2z"/>
			<path class="st2" d="M58.7,65.2v5.1c0,0.6-0.4,1.1-1,1.1s-1-0.5-1-1.1v-0.1c-0.7,0.8-1.8,1.2-3,1.2c-2,0-3.4-1.1-3.4-2.8
				c0-1.7,1.4-2.8,3.6-2.8h2.8V65c0-1.3-0.8-2.1-2.1-2.1c-0.8,0-1.6,0.3-2.2,0.9c-0.3,0.2-0.5,0.3-0.7,0.3c-0.5,0-0.9-0.4-0.9-0.9
				c0-0.3,0.1-0.6,0.4-0.9c0.8-0.9,2.1-1.4,3.6-1.4C57.2,61.1,58.7,62.6,58.7,65.2z M56.6,67.4v-0.2h-2.5c-1.1,0-1.7,0.4-1.7,1.2
				c0,0.8,0.7,1.3,1.7,1.3C55.5,69.7,56.6,68.7,56.6,67.4z"/>
			<path class="st2" d="M68.1,62.1c0,0.6-0.4,1-1,1c-1.6,0-2.7,1.1-2.7,2.7v4.4c0,0.6-0.4,1.1-1,1.1s-1.1-0.5-1.1-1.1v-8.1
				c0-0.6,0.4-1.1,1.1-1.1c0.6,0,1,0.5,1,1.1v0.3c0.7-0.8,1.6-1.3,2.7-1.3C67.7,61.2,68.1,61.6,68.1,62.1z"/>
			<path class="st2" d="M79.1,65.6L79.1,65.6c0,0.8-0.5,1.3-1.2,1.3h-6.3c0.3,1.6,1.5,2.6,3.2,2.6c0.8,0,1.6-0.3,2.3-0.8
				c0.2-0.1,0.4-0.2,0.5-0.2c0.5,0,0.9,0.4,0.9,0.9c0,0.4-0.1,0.6-0.5,0.9c-0.9,0.7-2,1.1-3.3,1.1c-3,0-5.3-2.2-5.3-5.1
				c0-2.9,2.2-5.1,5.1-5.1C77.1,61.1,79.1,63,79.1,65.6z M71.6,65.2H77c0-1.4-1-2.4-2.5-2.4C73,62.8,71.9,63.8,71.6,65.2z"/>
			<path class="st2" d="M89.8,65.2v5.1c0,0.6-0.4,1.1-1,1.1s-1-0.5-1-1.1v-0.1c-0.7,0.8-1.8,1.2-3,1.2c-2,0-3.4-1.1-3.4-2.8
				c0-1.7,1.4-2.8,3.6-2.8h2.8V65c0-1.3-0.8-2.1-2.1-2.1c-0.8,0-1.6,0.3-2.2,0.9c-0.3,0.2-0.5,0.3-0.7,0.3c-0.5,0-0.9-0.4-0.9-0.9
				c0-0.3,0.1-0.6,0.4-0.9c0.8-0.9,2.1-1.4,3.6-1.4C88.3,61.1,89.8,62.6,89.8,65.2z M87.7,67.4v-0.2h-2.5c-1.1,0-1.7,0.4-1.7,1.2
				c0,0.8,0.7,1.3,1.7,1.3C86.6,69.7,87.7,68.7,87.7,67.4z"/>
			<path class="st2" d="M98.9,66.2c0-2.9,2.3-5.1,5.2-5.1c1.7,0,3.2,0.8,4,2c0.2,0.2,0.2,0.4,0.2,0.6c0,0.5-0.4,1-0.9,1
				c-0.3,0-0.5-0.1-0.7-0.3c-0.6-0.7-1.4-1.2-2.5-1.2c-1.8,0-3.1,1.4-3.1,3.2c0,1.9,1.3,3.2,3.1,3.2c1.1,0,1.9-0.5,2.5-1.2
				c0.2-0.3,0.5-0.3,0.7-0.3c0.5,0,0.9,0.4,0.9,0.9c0,0.2,0,0.3-0.2,0.5c-0.8,1.2-2.2,2-4,2C101.2,71.3,98.9,69.1,98.9,66.2z"/>
			<path class="st2" d="M120.9,66.2c0,2.9-2.3,5.1-5.2,5.1c-2.9,0-5.2-2.3-5.2-5.1c0-2.9,2.3-5.1,5.2-5.1
				C118.6,61.1,120.9,63.3,120.9,66.2z M112.6,66.2c0,1.8,1.3,3.2,3,3.2c1.7,0,3.1-1.4,3.1-3.2c0-1.8-1.3-3.2-3-3.2
				C113.9,63,112.6,64.4,112.6,66.2z"/>
			<path class="st2" d="M129.7,62.1c0,0.6-0.4,1-1,1c-1.6,0-2.7,1.1-2.7,2.7v4.4c0,0.6-0.4,1.1-1,1.1s-1.1-0.5-1.1-1.1v-8.1
				c0-0.6,0.4-1.1,1.1-1.1c0.6,0,1,0.5,1,1.1v0.3c0.7-0.8,1.6-1.3,2.7-1.3C129.3,61.2,129.7,61.6,129.7,62.1z"/>
			<path class="st2" d="M140.7,65.6L140.7,65.6c0,0.8-0.5,1.3-1.2,1.3h-6.3c0.3,1.6,1.5,2.6,3.2,2.6c0.8,0,1.6-0.3,2.3-0.8
				c0.2-0.1,0.4-0.2,0.5-0.2c0.5,0,0.9,0.4,0.9,0.9c0,0.4-0.1,0.6-0.5,0.9c-0.9,0.7-2,1.1-3.3,1.1c-3,0-5.3-2.2-5.3-5.1
				c0-2.9,2.2-5.1,5.1-5.1C138.7,61.1,140.7,63,140.7,65.6z M133.2,65.2h5.3c0-1.4-1-2.4-2.5-2.4C134.6,62.8,133.6,63.8,133.2,65.2z
				"/>
			<path class="st2" d="M143,66.2c0-2.9,2.3-5.1,5.2-5.1c1.7,0,3.2,0.8,4,2c0.2,0.2,0.2,0.4,0.2,0.6c0,0.5-0.4,1-0.9,1
				c-0.3,0-0.5-0.1-0.7-0.3c-0.6-0.7-1.4-1.2-2.5-1.2c-1.8,0-3.1,1.4-3.1,3.2c0,1.9,1.3,3.2,3.1,3.2c1.1,0,1.9-0.5,2.5-1.2
				c0.2-0.3,0.5-0.3,0.7-0.3c0.5,0,0.9,0.4,0.9,0.9c0,0.2,0,0.3-0.2,0.5c-0.8,1.2-2.2,2-4,2C145.3,71.3,143,69.1,143,66.2z"/>
			<path class="st2" d="M161.5,70.2c0,0.4-0.2,0.7-0.6,0.9c-0.3,0.1-0.8,0.2-1.3,0.2c-2.3,0-3.6-1.2-3.6-3.4v-4.8h-0.8
				c-0.5,0-0.9-0.4-0.9-0.9s0.4-0.9,0.9-0.9h0.8v-1.7c0-0.6,0.5-1.1,1.1-1.1c0.6,0,1.1,0.5,1.1,1.1v1.7h2.1c0.5,0,0.9,0.4,0.9,0.9
				s-0.4,0.9-0.9,0.9H158v4.6c0,1.2,0.6,1.7,1.9,1.7c0.2,0,0.4,0,0.6,0C161.1,69.4,161.5,69.7,161.5,70.2z"/>
			<path class="st2" d="M171.9,65.2v5.1c0,0.6-0.4,1.1-1,1.1c-0.6,0-1-0.5-1-1.1v-0.1c-0.7,0.8-1.8,1.2-3,1.2c-2,0-3.4-1.1-3.4-2.8
				c0-1.7,1.4-2.8,3.6-2.8h2.8V65c0-1.3-0.8-2.1-2.1-2.1c-0.8,0-1.6,0.3-2.2,0.9c-0.3,0.2-0.5,0.3-0.7,0.3c-0.5,0-0.9-0.4-0.9-0.9
				c0-0.3,0.1-0.6,0.4-0.9c0.8-0.9,2.1-1.4,3.6-1.4C170.4,61.1,171.9,62.6,171.9,65.2z M164.6,56.7c0-0.5,0.4-0.9,0.8-0.9
				c0.5,0,0.7,0.3,0.8,0.7c0.1,0.8,0.8,1.4,1.5,1.4c0.8,0,1.4-0.6,1.6-1.4c0.1-0.5,0.4-0.7,0.8-0.7c0.5,0,0.9,0.4,0.9,0.9
				c0,1.6-1.5,2.9-3.2,2.9C166.1,59.6,164.6,58.2,164.6,56.7z M169.8,67.4v-0.2h-2.5c-1.1,0-1.7,0.4-1.7,1.2c0,0.8,0.7,1.3,1.7,1.3
				C168.6,69.7,169.8,68.7,169.8,67.4z"/>
		</g>
		<g>
			<path class="st3" d="M266.4,81.5c-0.1-0.4-6.9-18.6-7-19c-0.2-0.4-0.4-0.8-0.5-1c-5.1,5-10.1,10-15.1,15.1
				c4.2,1.6,8.4,3.2,12.6,4.7c0,0.1-255.9,1.3-255.9,1.3c-0.7,0-0.7,0.3,0,0.3c0,0,259.5,1.2,263.8,1.2
				C266.1,84.2,266.8,83.1,266.4,81.5z"/>
			<path class="st3" d="M246.5,40.1c2.9-2.9,2.9-7.6,0-10.5L219,2.2c-2.9-2.9-7.6-2.9-10.5,0s-2.9,7.6,0,10.5L236,40.1
				C238.9,43,243.6,43,246.5,40.1z"/>
			<path class="st3" d="M222.6,64c2.9-2.9,2.8-7.7-0.1-10.6L171.4,2.3c-3-3-7.7-3-10.6-0.1s-2.8,7.7,0.1,10.6l51.1,51.1
				C214.9,66.8,219.7,66.9,222.6,64z"/>
			<path class="st3" d="M234.5,52.1c2.9-2.9,2.9-7.6-0.1-10.5L195.2,2.3c-2.9-2.9-7.7-3-10.5-0.1s-2.9,7.6,0.1,10.5L224,52
				C226.9,54.9,231.6,54.9,234.5,52.1z"/>
		</g>
	</g>
</g>
</svg>
