<?xml version="1.0" encoding="utf-8"?>
<!-- Generator: Adobe Illustrator 20.1.0, SVG Export Plug-In . SVG Version: 6.00 Build 0)  -->
<svg version="1.1" id="Слой_1" xmlns="http://www.w3.org/2000/svg" xmlns:xlink="http://www.w3.org/1999/xlink" x="0px" y="0px"
	 width="287px" height="149.9px" viewBox="0 0 287 149.9" style="enable-background:new 0 0 287 149.9;" xml:space="preserve">
<style type="text/css">
	.st0{display:none;}
	.st1{display:inline;fill:#010202;}
	.st2{fill:#FFFFFF;}
</style>
<g id="Слой_2" class="st0">
	<rect y="0" class="st1" width="287" height="149.9"/>
</g>
<g id="Слой_1_1_">
	<g>
		<g>
			<path class="st2" d="M145.2,98.9c-0.5-1.1-1.5-1.7-2.7-1.7H135c-1.2,0-2,1.2-1.4,2.3l13.9,28.2c0.2,0.5,0.9,0.4,1.1,0l3.5-7.7
				c0.9-1.9,0.9-4,0-5.9C149.8,108.9,145.2,98.9,145.2,98.9z"/>
		</g>
		<g>
			<path class="st2" d="M177.1,99.5L161.2,132v14.9c0,1.3-1,2.3-2.3,2.3h-7c-1.3,0-2.3-1-2.3-2.3v-3.8c0-6,1.3-12,3.8-17.5
				c3.1-6.8,4.6-10,4.6-10l7.6-16.7c0.5-1.1,1.5-1.7,2.7-1.7h7.4C176.9,97.2,177.6,98.4,177.1,99.5z"/>
		</g>
		<g>
			<path class="st2" d="M40.7,146.8L28.5,127c-1.1-1.7-2.9-3.5-4.4-4.6v-0.2v-0.1c1.5-1.1,2.7-2.3,3.8-4.1l11.8-18.3
				c0.7-1.1-0.1-2.5-1.3-2.5h-7.6c-1.2,0-2.3,0.6-2.9,1.6l-10.5,16.6c-1.3,2.1-2,4.4-2,6.9l0,0c0,2.3,0.6,4.6,1.8,6.6l11.2,18.7
				c0.6,1,1.7,1.7,2.9,1.7h8C40.6,149.2,41.4,147.8,40.7,146.8z"/>
		</g>
		<g>
			<path class="st2" d="M11.7,99.5V147c0,1.3-1,2.3-2.3,2.3H2.5c-1.3,0-2.3-1-2.3-2.3V99.5c0-1.3,1-2.3,2.3-2.3h6.9
				C10.7,97.2,11.7,98.2,11.7,99.5z"/>
		</g>
		<g>
			<path class="st2" d="M87.6,147.2l-4-14.2c-1.2-5.4-4.8-7.2-7.4-7.8v-0.4c7.4-0.9,10-5.6,10-12.9c0-11.9-5.7-15.4-19.2-15.4
				c-8.3,0-12.5,0.1-17.7,0.5c-1.2,0.1-2.1,1.1-2.1,2.3v5.5c0,0.3,0.3,0.6,0.6,0.6c14.3,0,8.9,0,19-0.1c6,0,7.8,1.5,7.8,7.3
				c0,5.7-1.8,7.4-7.8,7.4h-8.3v-10.4c0-0.3-0.3-0.6-0.6-0.6h-7.2c-2,0-3.6,1.6-3.6,3.6V147c0,1.3,1,2.3,2.3,2.3h6.7
				c1.3,0,2.3-1,2.3-2.3v-18.1l8.1,0.1c3.1,0,4.6,1.1,5.6,4.4l3.4,13.7c0.3,1.3,1.5,2.3,2.9,2.3H86
				C87.1,149.2,87.9,148.2,87.6,147.2z"/>
		</g>
		<g>
			<path class="st2" d="M126,140.2h-17.8c-2.5,0-3.5-1.1-3.5-3.9V110c0-2.7,1.1-3.8,3.5-3.8H126c1.2,0,2.2-0.9,2.3-2.2l0.3-4.2
				c0.1-1.2-0.9-2.3-2.1-2.4c-6.7-0.5-14.7-0.5-21.9-0.5c-6.9,0-11.4,4.1-11.5,10.5V139c0.1,6.4,4.5,10.5,11.5,10.5
				c7.2,0,15.2,0,21.9-0.5c1.2-0.1,2.2-1.2,2.1-2.4l-0.3-4.1C128.2,141.2,127.2,140.2,126,140.2z M108.2,121.6v4.1
				c0,0.3,0.3,0.6,0.6,0.6h14.3c1.3,0,2.3-1,2.3-2.3v-3.7c0-1.3-1-2.3-2.3-2.3h-11.3C109.8,118,108.2,119.6,108.2,121.6z"/>
		</g>
		<g>
			<path class="st2" d="M203.8,96.5c-7,0-12.7,0.2-18.1,0.5c-1.2,0.1-2.2,1.1-2.2,2.3v5.6c0,0.3,0.3,0.6,0.6,0.6
				c8.6,0,14.3,0,19.6-0.1c7.8,0,10.1,4.1,10.1,17.7c0,13.7-2.3,17.7-10.1,17.7c-3.2,0-6.1-0.1-8.8-0.1v-31c0-0.3-0.3-0.6-0.6-0.6
				H187c-2,0-3.6,1.6-3.6,3.6v34.4c0,1.2,0.9,2.2,2.2,2.3c5.4,0.3,11.2,0.6,18.1,0.6c16.4,0,22.2-6.1,22.2-26.7
				S220.2,96.5,203.8,96.5z"/>
		</g>
		<g>
			<path class="st2" d="M275.7,147.2l-14.4-47c-0.4-1.9-2-3-4-3h-10.9c-1.9,0-3.5,1.1-4,3l-14.4,47c-0.3,1,0.5,2.1,1.5,2.1h7.3
				c1.3,0,2.5-0.9,2.9-2.2c2.8-10,3.7-13.4,10-36.3c0.4-1.6,0.8-3.3,1.1-4.9h2c0.2,1.6,0.7,3.3,1.1,4.9l4.4,15.9h-6.5
				c-1.6,0-3,1.1-3.4,2.6l-1.5,5.5c-0.1,0.4,0.2,0.8,0.6,0.8h13.4L264,147c0.4,1.3,1.5,2.2,2.9,2.2h7.3
				C275.2,149.2,276,148.2,275.7,147.2z"/>
		</g>
		<g>
			<path class="st2" d="M282.7,109.6l-0.7-2.2c-0.3-1.2-1-1.4-1.6-1.4v-0.1c1.6-0.2,2-1.1,2-2.1c0-2-1.3-2.6-4.2-2.6
				c-1.7,0-2.6,0-3.7,0.1c-0.3,0-0.5,0.2-0.5,0.5v1.3c0,0.1,0.1,0.2,0.2,0.2h3.9c1,0,1.2,0.1,1.2,0.8c0,0.7-0.2,0.9-1.2,0.9H277
				v-0.8c0-0.1-0.1-0.2-0.2-0.2h-2.1c-0.4,0-0.6,0.3-0.6,0.6v4.8c0,0.3,0.2,0.5,0.5,0.5h1.9c0.3,0,0.5-0.2,0.5-0.5v-2.6h1
				c0.5,0,0.7,0.1,0.9,0.6l0.5,2c0.1,0.3,0.4,0.5,0.7,0.5h2.1C282.6,110,282.8,109.8,282.7,109.6z M278.1,97c-5,0-8.9,4-8.9,8.9
				c0,5,4,8.9,8.9,8.9s8.9-4,8.9-8.9C287,100.9,283.1,97,278.1,97z M278.1,112.7c-3.8,0-6.8-3.1-6.8-6.9s3.1-6.9,6.8-6.9
				c3.7,0,6.8,3.1,6.8,6.9S281.8,112.7,278.1,112.7z"/>
		</g>
		<g>
			<path class="st2" d="M10.8,57.7v12.6c0,0.6-0.4,1-1,1s-1-0.4-1-1v-0.4c-0.7,0.9-1.8,1.4-3.2,1.4C3,71.3,1,69.2,1,66.4
				s1.9-4.9,4.6-4.9c1.3,0,2.4,0.5,3.1,1.3v-5.2c0-0.6,0.4-1,1-1S10.8,57.1,10.8,57.7z M8.8,66.4c0-1.8-1.1-3.1-2.8-3.1
				s-2.9,1.3-2.9,3c0,1.8,1.2,3.1,2.9,3.1C7.7,69.5,8.8,68.2,8.8,66.4z"/>
			<path class="st2" d="M23.5,66.4c0,2.7-2.2,4.9-5,4.9s-4.9-2.2-4.9-4.9c0-2.7,2.2-4.9,4.9-4.9C21.3,61.6,23.5,63.7,23.5,66.4z
				 M15.7,66.4c0,1.7,1.2,3,2.9,3s2.9-1.3,2.9-3s-1.3-3-2.9-3.1C16.9,63.4,15.7,64.7,15.7,66.4z"/>
			<path class="st2" d="M28.3,57.7v12.6c0,0.6-0.4,1-1,1s-1-0.4-1-1V57.7c0-0.6,0.4-1,1-1S28.3,57.1,28.3,57.7z M34.5,70.4
				c0,0.5-0.4,0.9-0.9,0.9c-0.3,0-0.6-0.1-0.8-0.4l-3.7-4.2c-0.2-0.3-0.3-0.5-0.3-0.7c0-0.3,0.1-0.5,0.3-0.7l3.4-3.3
				c0.2-0.2,0.5-0.3,0.7-0.3c0.5,0,0.9,0.4,0.9,0.9c0,0.3-0.1,0.5-0.4,0.7L31,65.9l3.2,3.8C34.4,69.9,34.5,70.1,34.5,70.4z"/>
			<path class="st2" d="M41.2,63.7c0,0.3-0.2,0.6-0.5,0.8L39.4,65v5.3c0,0.6-0.4,1-1,1s-1-0.4-1-1v-4.5L37.1,66
				c-0.1,0-0.2,0.1-0.4,0.1c-0.5,0-0.9-0.4-0.9-0.9c0-0.3,0.2-0.6,0.5-0.8l1.1-0.5v-6.2c0-0.6,0.4-1,1-1s1,0.4,1,1v5.5l0.5-0.2
				c0.1-0.1,0.2-0.1,0.4-0.1C40.8,62.8,41.2,63.2,41.2,63.7z"/>
			<path class="st2" d="M51.1,65.5v4.8c0,0.6-0.4,1-1,1s-1-0.4-1-1v-0.1c-0.7,0.7-1.7,1.1-2.9,1.1c-1.9,0-3.2-1.1-3.2-2.7
				s1.3-2.7,3.4-2.7H49v-0.6c0-1.3-0.7-2-2-2c-0.8,0-1.5,0.3-2.1,0.9c-0.2,0.2-0.5,0.3-0.7,0.3c-0.5,0-0.9-0.4-0.9-0.8
				c0-0.3,0.1-0.6,0.4-0.8c0.8-0.8,2-1.3,3.4-1.3C49.7,61.6,51.1,63,51.1,65.5z M49.1,67.6v-0.2h-2.4c-1.1,0-1.7,0.4-1.7,1.1
				c0,0.8,0.6,1.2,1.6,1.2C48,69.8,49.1,68.8,49.1,67.6z"/>
			<path class="st2" d="M63.6,57.7v12.6c0,0.6-0.4,1-1,1s-1-0.4-1-1v-0.4c-0.7,0.9-1.8,1.4-3.2,1.4c-2.6,0-4.6-2.1-4.6-4.9
				s1.9-4.9,4.6-4.9c1.3,0,2.4,0.5,3.1,1.3v-5.2c0-0.6,0.4-1,1-1S63.6,57.1,63.6,57.7z M61.6,66.4c0-1.8-1.1-3.1-2.8-3.1
				s-2.9,1.3-2.9,3c0,1.8,1.2,3.1,2.9,3.1C60.4,69.5,61.6,68.2,61.6,66.4z"/>
			<path class="st2" d="M75.2,65.3v5c0,0.6-0.4,1-1,1s-1-0.4-1-1v-4.7c0-1.3-0.8-2.2-2-2.2s-2.1,0.9-2.1,2.2v4.7c0,0.6-0.4,1-1,1
				s-1-0.4-1-1v-7.7c0-0.6,0.4-1,1-1s1,0.4,1,1c0.7-0.6,1.6-1,2.7-1C73.8,61.6,75.2,63,75.2,65.3z"/>
			<path class="st2" d="M87,65.9L87,65.9c0,0.8-0.4,1.2-1.1,1.2h-6c0.3,1.5,1.4,2.5,3,2.5c0.8,0,1.6-0.2,2.2-0.7
				c0.2-0.1,0.3-0.2,0.5-0.2c0.5,0,0.8,0.4,0.8,0.8c0,0.3-0.1,0.6-0.5,0.8c-0.9,0.7-1.9,1-3.1,1c-2.9,0-5-2.1-5-4.9
				c0-2.8,2.1-4.9,4.8-4.9C85.2,61.6,87,63.4,87,65.9z M80,65.5h5.1c0-1.3-1-2.3-2.4-2.3C81.3,63.2,80.3,64.2,80,65.5z"/>
			<path class="st2" d="M105.1,66.4c0,2.7-2.2,4.9-5,4.9s-4.9-2.2-4.9-4.9c0-2.7,2.2-4.9,4.9-4.9C102.9,61.6,105.1,63.7,105.1,66.4z
				 M97.2,66.4c0,1.7,1.2,3,2.9,3c1.7,0,2.9-1.3,2.9-3s-1.3-3-2.9-3.1C98.5,63.4,97.2,64.7,97.2,66.4z"/>
			<path class="st2" d="M114.6,70.2c0,0.5-0.4,0.9-0.9,0.9h-6.3c-0.5,0-0.9-0.4-0.9-0.9c0-0.3,0.1-0.5,0.4-0.8l4.8-5.9h-4
				c-0.5,0-0.9-0.4-0.9-0.9s0.4-0.9,0.9-0.9h5.8c0.5,0,0.9,0.4,0.9,0.9c0,0.3-0.1,0.5-0.3,0.7l-4.8,6h4.4
				C114.3,69.4,114.6,69.7,114.6,70.2z"/>
			<path class="st2" d="M125.1,65.3v5c0,0.6-0.4,1-1,1s-1-0.4-1-1v-4.7c0-1.3-0.8-2.2-2-2.2s-2.1,0.9-2.1,2.2v4.7c0,0.6-0.4,1-1,1
				s-1-0.4-1-1v-7.7c0-0.6,0.4-1,1-1s1,0.4,1,1c0.7-0.6,1.6-1,2.7-1C123.8,61.6,125.1,63,125.1,65.3z"/>
			<path class="st2" d="M135.9,65.5v4.8c0,0.6-0.4,1-1,1s-1-0.4-1-1v-0.1c-0.7,0.7-1.7,1.1-2.9,1.1c-1.9,0-3.2-1.1-3.2-2.7
				s1.3-2.7,3.4-2.7h2.6v-0.6c0-1.3-0.7-2-2-2c-0.8,0-1.5,0.3-2.1,0.9c-0.2,0.2-0.5,0.3-0.7,0.3c-0.5,0-0.9-0.4-0.9-0.8
				c0-0.3,0.1-0.6,0.4-0.8c0.8-0.8,2-1.3,3.4-1.3C134.5,61.6,135.9,63,135.9,65.5z M133.9,67.6v-0.2h-2.4c-1.1,0-1.7,0.4-1.7,1.1
				c0,0.8,0.6,1.2,1.6,1.2C132.8,69.8,133.9,68.8,133.9,67.6z"/>
			<path class="st2" d="M138.6,66.4c0-2.7,2.2-4.9,4.9-4.9c1.6,0,3,0.8,3.8,1.9c0.2,0.2,0.2,0.4,0.2,0.5c0,0.5-0.4,0.9-0.9,0.9
				c-0.3,0-0.5-0.1-0.7-0.3c-0.6-0.7-1.3-1.2-2.3-1.2c-1.7,0-2.9,1.3-2.9,3c0,1.8,1.2,3,2.9,3c1,0,1.8-0.5,2.3-1.2
				c0.2-0.3,0.4-0.3,0.7-0.3c0.5,0,0.9,0.4,0.9,0.9c0,0.2,0,0.3-0.2,0.5c-0.8,1.2-2.1,1.9-3.8,1.9C140.8,71.3,138.6,69.2,138.6,66.4
				z"/>
			<path class="st2" d="M157.3,70.2c0,0.5-0.4,0.9-0.9,0.9h-6.3c-0.5,0-0.9-0.4-0.9-0.9c0-0.3,0.1-0.5,0.4-0.8l4.8-5.9h-4
				c-0.5,0-0.9-0.4-0.9-0.9s0.4-0.9,0.9-0.9h5.8c0.5,0,0.9,0.4,0.9,0.9c0,0.3-0.1,0.5-0.3,0.7l-4.8,6h4.4
				C157,69.4,157.3,69.7,157.3,70.2z"/>
			<path class="st2" d="M168,65.9L168,65.9c0,0.8-0.4,1.2-1.1,1.2h-6c0.3,1.5,1.4,2.5,3,2.5c0.8,0,1.6-0.2,2.2-0.7
				c0.2-0.1,0.3-0.2,0.5-0.2c0.5,0,0.8,0.4,0.8,0.8c0,0.3-0.1,0.6-0.5,0.8c-0.9,0.7-1.9,1-3.1,1c-2.9,0-5-2.1-5-4.9
				c0-2.8,2.1-4.9,4.8-4.9C166.2,61.6,168,63.4,168,65.9z M161,65.5h5.1c0-1.3-1-2.3-2.4-2.3C162.3,63.2,161.3,64.2,161,65.5z"/>
			<path class="st2" d="M179.1,65.3v5c0,0.6-0.4,1-1,1s-1-0.4-1-1v-4.7c0-1.3-0.8-2.2-2-2.2s-2.1,0.9-2.1,2.2v4.7c0,0.6-0.4,1-1,1
				s-1-0.4-1-1v-7.7c0-0.6,0.4-1,1-1s1,0.4,1,1c0.7-0.6,1.6-1,2.7-1C177.7,61.6,179.1,63,179.1,65.3z"/>
			<path class="st2" d="M184.7,58.3c0,0.7-0.6,1.3-1.3,1.3s-1.3-0.6-1.3-1.3s0.6-1.3,1.3-1.3C184.1,57,184.7,57.6,184.7,58.3z
				 M182.4,70.3v-7.7c0-0.6,0.4-1,1-1s1,0.4,1,1v7.7c0,0.6-0.4,1-1,1S182.4,70.9,182.4,70.3z"/>
			<path class="st2" d="M195.2,65.5v4.8c0,0.6-0.4,1-1,1s-1-0.4-1-1v-0.1c-0.7,0.7-1.7,1.1-2.9,1.1c-1.9,0-3.2-1.1-3.2-2.7
				s1.3-2.7,3.4-2.7h2.6v-0.6c0-1.3-0.7-2-2-2c-0.8,0-1.5,0.3-2.1,0.9c-0.2,0.2-0.5,0.3-0.7,0.3c-0.5,0-0.9-0.4-0.9-0.8
				c0-0.3,0.1-0.6,0.4-0.8c0.8-0.8,2-1.3,3.4-1.3C193.8,61.6,195.2,63,195.2,65.5z M193.2,67.6v-0.2h-2.4c-1.1,0-1.7,0.4-1.7,1.1
				c0,0.8,0.6,1.2,1.6,1.2C192.1,69.8,193.2,68.8,193.2,67.6z"/>
		</g>
		<g>
			<path class="st2" d="M266.4,81.5c-0.1-0.4-6.9-18.6-7-19c-0.2-0.4-0.4-0.8-0.5-1c-5.1,5-10.1,10-15.1,15.1
				c4.2,1.6,8.4,3.2,12.6,4.7c0,0.1-255.9,1.3-255.9,1.3c-0.7,0-0.7,0.3,0,0.3c0,0,259.5,1.2,263.8,1.2
				C266.1,84.2,266.8,83.1,266.4,81.5z"/>
			<path class="st2" d="M246.5,40.1c2.9-2.9,2.9-7.6,0-10.5L219,2.2c-2.9-2.9-7.6-2.9-10.5,0s-2.9,7.6,0,10.5L236,40.1
				C238.9,43,243.6,43,246.5,40.1z"/>
			<path class="st2" d="M222.6,64c2.9-2.9,2.8-7.7-0.1-10.6L171.4,2.3c-3-3-7.7-3-10.6-0.1s-2.8,7.7,0.1,10.6L212,63.9
				C214.9,66.8,219.7,66.9,222.6,64z"/>
			<path class="st2" d="M234.5,52.1c2.9-2.9,2.9-7.6-0.1-10.5L195.2,2.3c-2.9-2.9-7.7-3-10.5-0.1s-2.9,7.6,0.1,10.5L224,52
				C226.9,54.9,231.6,54.9,234.5,52.1z"/>
		</g>
	</g>
</g>
</svg>
