<?xml version="1.0" encoding="utf-8"?>
<!-- Generator: Adobe Illustrator 23.0.1, SVG Export Plug-In . SVG Version: 6.00 Build 0)  -->
<svg version="1.1" id="Слой_1" xmlns="http://www.w3.org/2000/svg" xmlns:xlink="http://www.w3.org/1999/xlink" x="0px" y="0px"
	 width="512px" height="512px" viewBox="0 0 512 512" style="enable-background:new 0 0 512 512;" xml:space="preserve">
<style type="text/css">
	.st0{fill:#FFFFFF;}
</style>
<g transform="matrix(1 0 0 1 0 0)">
	<path class="st0" d="M39.9,248l103.2,38.5L183.1,415c2.6,8.2,12.6,11.3,19.3,5.8l57.5-46.9c6-4.9,14.6-5.2,20.9-0.6l103.8,75.3
		c7.1,5.2,17.3,1.3,19.1-7.4l76-365.7c2-9.4-7.3-17.3-16.3-13.8L39.8,225.2C29.4,229.3,29.5,244.1,39.9,248z M176.7,266l201.7-124.2
		c3.6-2.2,7.4,2.7,4.2,5.6L216.2,302.1c-5.9,5.4-9.6,12.7-10.7,20.6l-5.7,42c-0.8,5.6-8.6,6.2-10.2,0.7l-21.8-76.6
		C165.3,280.1,168.9,270.8,176.7,266z"/>
</g>
</svg>
