<?xml version="1.0" encoding="utf-8"?>
<!-- Generator: Adobe Illustrator 23.0.1, SVG Export Plug-In . SVG Version: 6.00 Build 0)  -->
<svg version="1.1" xmlns="http://www.w3.org/2000/svg" xmlns:xlink="http://www.w3.org/1999/xlink" x="0px" y="0px" width="512px"
	 height="512px" viewBox="0 0 512 512" style="enable-background:new 0 0 512 512;" xml:space="preserve">
<style type="text/css">
	.st0{display:none;}
	.st1{display:inline;}
	.st2{fill:#A8A8A8;}
	.st3{fill:none;stroke:#FFFFFF;stroke-width:30;stroke-miterlimit:10;}
	.st4{fill:none;stroke:#FFFFFF;stroke-width:30;stroke-linecap:round;stroke-linejoin:round;stroke-miterlimit:10;}
</style>
<g id="Capa_1" class="st0">
	<g class="st1">
		<path class="st2" d="M450.2,57.3C409.7,17.6,344.3-1.6,255.7,0.1C166.3,1.9,106.6,17.5,67.7,49.5c-37.6,30.9-55.1,76-55.1,142.1
			V259c0,78,41.8,163.8,121.7,176.8c9.2,1.5,17.9-4.8,19.4-14c1.5-9.2-4.8-17.9-14-19.4c-60.6-9.8-93.3-81.2-93.3-143.4v-67.4
			c0-94.8,35.1-154.2,209.9-157.6c79.2-1.6,136.4,14.4,170.2,47.5c26.3,25.8,39.1,61.8,39.1,110.1V259
			c0,102.1-45.8,147.2-163.4,160.4h-83.4c-4.5,0-8.8,1.8-12,5l-58.7,58.7c-6.6,6.6-6.6,17.3,0,23.9c3.3,3.3,7.6,5,12,5
			c4.3,0,8.7-1.7,12-5l53.8-53.8h77.3c0.6,0,1.2,0,1.9-0.1c67.3-7.5,113.4-25,145-55.1c33.3-31.7,49.4-77.2,49.4-139.1v-67.4
			C499.4,134.5,482.8,89.3,450.2,57.3z"/>
		<path class="st2" d="M266.6,110.5C266.6,110.5,266.6,110.5,266.6,110.5c27.3,0,52.9,10.6,72.2,29.9c19.3,19.3,29.9,44.9,29.9,72.2
			c0,9.3,7.6,16.9,16.9,16.9c0,0,0,0,0,0c9.3,0,16.9-7.6,16.9-16.9c0-36.3-14.1-70.4-39.8-96.1c-25.7-25.7-59.8-39.8-96.1-39.8
			c0,0,0,0,0,0c-9.3,0-16.9,7.6-16.9,16.9C249.6,102.9,257.2,110.5,266.6,110.5z"/>
		<path class="st2" d="M266.6,170c23.5,0,42.6,19.1,42.6,42.6c0,9.3,7.6,16.9,16.9,16.9c9.3,0,16.9-7.6,16.9-16.9
			c0-42.1-34.3-76.4-76.4-76.4h0c-9.3,0-16.9,7.6-16.9,16.9C249.6,162.4,257.2,170,266.6,170z"/>
		<path class="st2" d="M190.7,199c-7.7,5.3-9.7,15.8-4.4,23.5c5.3,7.7,15.8,9.7,23.5,4.4c6.1-4.1,20.3-13.9,19.3-33.3
			c-0.6-11.6-11.1-28.2-19.8-40.1c-12.7-17.4-23.6-27.8-32.5-31.1c-8.2-3.1-16.8-3.1-25.6-0.2c-18.2,6.1-31.3,17.2-38.1,32
			c-6.6,14.4-6.5,31,0.4,47.9c16.3,39.9,39,74.8,67.8,103.9c29,28.6,63.9,51.4,103.8,67.6c8.6,3.5,17.2,5.3,25.4,5.3
			c7.9,0,15.4-1.6,22.5-4.8c14.8-6.8,25.9-20,32-38.1c2.9-8.7,2.9-17.4-0.2-25.5c-3.3-8.9-13.7-19.8-31.1-32.5
			c-11.9-8.7-28.5-19.2-40.1-19.8c-19.4-1-29.1,13.2-33.2,19.3c-5.3,7.7-3.3,18.2,4.4,23.5c7.7,5.3,18.2,3.3,23.5-4.4
			c1.8-2.7,2.9-3.9,3.5-4.4c9.5,3,36.6,22.9,41.5,30.6c0.1,0.5,0.1,1.2-0.3,2.6c-2.1,6.3-6.3,14.6-14,18.2c-7.2,3.3-15.4,1.3-21-1
			c-35.7-14.6-67-34.9-92.6-60.2c-25.5-25.8-45.8-57-60.4-92.7c-2.3-5.6-4.3-13.8-1-21c3.5-7.7,11.8-11.9,18.1-14
			c1.3-0.5,2.1-0.4,2.6-0.3c7.6,4.9,27.5,31.9,30.6,41.4C194.6,196.1,193.4,197.1,190.7,199z"/>
	</g>
</g>
<g id="Слой_2">
	<path class="st3" d="M343,434"/>
	<path class="st3" d="M334.2,18.7c-54.1-6-99.2-5.3-154.4,0c-10.5,1-66,1.4-110.9,52.5c-44.9,51-46.1,114.1-46.1,126.1l0,49.1h0v6
		c0,87.7,56.4,157.5,129.8,174.7c2.9,0.7,4.9,3.2,4.9,6.1V496c0,2.2,2.5,3.3,4,1.7l55.9-61.2c1.3-1.4,3.1-2.1,5-2
		c36.9,1.8,71.7,0.4,111.9-3.4c10.5-1,66-1.4,110.9-52.5s46.1-114.1,46.1-126.1v-49.1v-6C491.2,99.1,420.5,23.2,334.2,18.7z"/>
	<g>
		<g>
			<path class="st4" d="M269.6,286.6c8.5-8.5,21.9-9.6,31.6-2.6l28.6,20.5c9.6,6.9,12.9,19.7,7.8,30.3l-4.1,8.6
				c-6,12.6-15.8,20.5-34.4,18.1c-43.4-14.3-79.8-35.6-109.6-65.5l-4.6-4.6c-29.9-29.9-51.3-66.2-65.5-109.6
				c-2.5-18.5,5.5-28.4,18.1-34.4l8.6-4.1c10.7-5.1,23.4-1.8,30.3,7.8l20.5,28.6c7,9.7,5.9,23.1-2.6,31.6"/>
		</g>
		<path class="st4" d="M255.1,161.4c0,0,64.8-3.1,64.8,64.8"/>
		<path class="st4" d="M240.5,99.8c0,0,140.9-7,140.6,140.6"/>
	</g>
</g>
</svg>
