<?xml version="1.0" encoding="utf-8"?>
<!-- Generator: Adobe Illustrator 23.0.1, SVG Export Plug-In . SVG Version: 6.00 Build 0)  -->
<svg version="1.1" xmlns="http://www.w3.org/2000/svg" xmlns:xlink="http://www.w3.org/1999/xlink" x="0px" y="0px" width="512px"
	 height="512px" viewBox="0 0 512 512" style="enable-background:new 0 0 512 512;" xml:space="preserve">
<style type="text/css">
	.st0{fill:#A8A8A8;}
	.st1{fill:none;stroke:#000000;stroke-width:25;stroke-miterlimit:10;}
	.st2{fill:none;stroke:#000000;stroke-width:25;stroke-linecap:round;stroke-miterlimit:10;}
</style>
<g id="Capa_1">
	<g>
		<path class="st0" d="M252.8-21.8c-56.7,0.6-116.5,33.2-178,97.1c-61.9,64.4-93.1,117.7-98,167.8c-4.8,48.4,14.8,92.7,61.5,139.4
			L86,430.2c55.2,55.2,145.4,86.2,211,38.9c7.6-5.5,9.3-16,3.8-23.6c-5.5-7.6-16-9.3-23.6-3.8c-49.8,35.9-123.4,8.5-167.3-35.4
			l-47.7-47.7c-67-67-84.2-133.8,37-259.9C154.1,41.6,205.9,12.5,253.1,12c36.8-0.4,71.3,16.1,105.5,50.2l47.7,47.7
			c72.2,72.2,71.7,136.5-2.1,229l-58.9,58.9c-3.2,3.2-5,7.5-5,12v83.1c0,9.3,7.6,16.9,16.9,16.9c4.7,0,8.9-1.9,12-5
			c3.1-3.1,5-7.3,5-12v-76.1l54.7-54.7c0.4-0.4,0.9-0.9,1.2-1.4c42.3-52.9,62.5-97.8,63.6-141.5c1.1-45.9-19.6-89.5-63.4-133.3
			l-47.7-47.7C342.2-2,298.5-22.3,252.8-21.8z"/>
		<path class="st0" d="M160.6,145.7C160.6,145.7,160.6,145.7,160.6,145.7c19.3-19.3,44.9-29.9,72.2-29.9c27.3,0,52.9,10.6,72.2,29.9
			c6.6,6.6,17.3,6.6,23.9,0c0,0,0,0,0,0c6.6-6.6,6.6-17.3,0-23.9c-25.7-25.7-59.8-39.8-96.1-39.8c-36.3,0-70.4,14.1-96.1,39.8
			c0,0,0,0,0,0c-6.6,6.6-6.6,17.3,0,23.9C143.3,152.3,154,152.3,160.6,145.7z"/>
		<path class="st0" d="M202.6,187.7c16.6-16.6,43.6-16.6,60.2,0c6.6,6.6,17.3,6.6,23.9,0c6.6-6.6,6.6-17.3,0-23.9
			c-29.8-29.8-78.3-29.8-108.1,0l0,0c-6.6,6.6-6.6,17.3,0,23.9C185.3,194.3,196,194.3,202.6,187.7z"/>
		<path class="st0" d="M169.5,261.9c-1.7,9.2,4.3,18,13.5,19.8c9.2,1.7,18-4.3,19.7-13.5c1.4-7.2,4.5-24.1-9.9-37.2
			c-8.7-7.8-27.8-12.1-42.3-14.3c-21.3-3.3-36.4-3-44.9,1c-8,3.7-14.1,9.7-18.2,18c-8.5,17.2-10,34.3-4.3,49.6
			c5.5,14.9,17.3,26.5,34.2,33.6c39.7,16.7,80.5,25.3,121.4,25.5c40.7-0.2,81.5-8.8,121.2-25.6c8.6-3.6,15.9-8.4,21.7-14.2
			c5.6-5.6,9.8-12.1,12.5-19.3c5.7-15.3,4.2-32.4-4.4-49.6c-4.1-8.3-10.2-14.3-18.2-17.9c-8.6-4-23.7-4.3-45-1
			c-14.5,2.3-33.7,6.6-42.4,14.4c-14.4,13-11.2,29.9-9.9,37.1c1.7,9.2,10.6,15.2,19.7,13.5c9.2-1.7,15.2-10.6,13.5-19.7
			c-0.6-3.2-0.7-4.8-0.7-5.6c8.9-4.6,42.1-9.6,50.9-7.7c0.4,0.3,1,0.8,1.6,2c3,6,5.9,14.8,2.9,22.7c-2.8,7.4-10,11.8-15.6,14.2
			c-35.6,15-72,22.7-108.1,22.9c-36.3-0.2-72.7-7.9-108.3-22.9c-5.6-2.4-12.8-6.7-15.6-14.2c-3-7.9,0-16.8,2.9-22.7
			c0.6-1.3,1.2-1.8,1.6-2.1c8.8-1.9,42,3.1,50.9,7.7C170.2,257.1,170.1,258.7,169.5,261.9z"/>
	</g>
</g>
<g id="Слой_2">
	<path class="st1" d="M343,434"/>
	<path class="st1" d="M334.2,18.7c-54.1-6-99.2-5.3-154.4,0c-10.5,1-66,1.4-110.9,52.5c-44.9,51-46.1,114.1-46.1,126.1l0,49.1h0v6
		c0,89.6,58.9,160.6,134.7,175.8V496c0,2.2,2.5,3.3,4,1.7l57.9-63.4c38,2.1,73.5,0.6,114.8-3.3c10.5-1,66-1.4,110.9-52.5
		s46.1-114.1,46.1-126.1v-49.1v-6C491.2,99.1,420.5,23.2,334.2,18.7z"/>
	<path class="st2" d="M211.5,267.8L211.5,267.8c0-12-8.7-22.2-20.5-24.2l-34.7-5.7c-11.7-1.9-23,4.8-27,15.9l-3.2,9
		c-4.7,13.1,1.4,28.2,11.5,37.1c40.8,20.6,81.6,31.2,123.8,31.2"/>
</g>
</svg>
